<?xml version="1.0" standalone="no"?>
<!DOCTYPE svg PUBLIC "-//W3C//DTD SVG 20010904//EN"
 "http://www.w3.org/TR/2001/REC-SVG-20010904/DTD/svg10.dtd">
<svg version="1.0" xmlns="http://www.w3.org/2000/svg"
 width="700.000000pt" height="700.000000pt" viewBox="0 0 700.000000 700.000000"
 preserveAspectRatio="xMidYMid meet">
<metadata>
Created by potrace 1.14, written by Peter Selinger 2001-2017
</metadata>
<g transform="translate(0.000000,700.000000) scale(0.100000,-0.100000)"
fill="#000000" stroke="none">
<path d="M246 6714 c42 -93 72 -179 85 -247 22 -118 90 -211 191 -264 47 -24
66 -28 172 -31 l118 -4 34 -74 c19 -41 46 -117 59 -170 30 -115 42 -138 92
-186 63 -61 112 -78 229 -78 l102 0 7 -312 c3 -172 5 -376 3 -453 l-3 -140
-324 -3 c-263 -2 -322 -5 -318 -16 3 -7 29 -91 57 -187 59 -196 74 -230 122
-276 58 -56 88 -63 283 -63 l175 0 0 -185 0 -185 340 0 340 0 0 185 0 185
1490 0 1490 0 0 -185 0 -185 340 0 340 0 0 185 0 185 175 0 c195 0 225 7 283
63 48 46 63 80 122 276 28 96 54 180 57 187 4 11 -55 14 -318 16 l-324 3 -3
140 c-2 77 0 281 3 453 l7 312 102 0 c117 0 166 17 229 78 50 48 62 71 92 186
13 53 40 129 59 170 l34 74 113 4 c98 3 122 7 170 29 104 49 175 145 198 266
13 68 46 163 86 251 l34 72 -3289 0 -3289 0 35 -76z m2876 -1509 l3 -455 -560
2 -560 3 -3 140 c-2 77 0 281 3 453 l7 312 554 0 554 0 2 -455z m1873 143 c3
-172 5 -376 3 -453 l-3 -140 -560 -3 -560 -2 3 455 2 455 554 0 554 0 7 -312z"/>
<path d="M1338 2005 l4 -1445 -49 0 c-91 -1 -170 -57 -193 -138 -5 -20 -10
-76 -10 -124 l0 -88 580 0 580 0 0 78 c0 42 -5 97 -11 122 -21 91 -96 149
-192 150 l-49 0 4 1445 3 1445 -335 0 -335 0 3 -1445z"/>
<path d="M4998 2005 l4 -1445 -49 0 c-96 -1 -171 -59 -192 -150 -6 -25 -11
-80 -11 -122 l0 -78 580 0 580 0 0 88 c0 48 -5 104 -10 124 -23 81 -102 137
-193 138 l-49 0 4 1445 3 1445 -335 0 -335 0 3 -1445z"/>
</g>
</svg>
